<svg width="14" height="14" viewBox="0 0 14 14" fill="none" xmlns="http://www.w3.org/2000/svg">
<path d="M0.594 8.838L0.99 7.902H9.126L8.73 8.838H0.594ZM9.756 5.904L9.36 6.84H1.026L1.422 5.904H9.756ZM2.34 7.02C2.34 6.24 2.472 5.478 2.736 4.734C3.012 3.978 3.408 3.294 3.924 2.682C4.452 2.058 5.094 1.566 5.85 1.206C6.606 0.833999 7.464 0.647999 8.424 0.647999C9.564 0.647999 10.542 0.911999 11.358 1.44C12.174 1.956 12.78 2.622 13.176 3.438L11.898 4.266C11.646 3.726 11.322 3.3 10.926 2.988C10.542 2.664 10.122 2.436 9.666 2.304C9.222 2.172 8.784 2.106 8.352 2.106C7.644 2.106 7.014 2.25 6.462 2.538C5.922 2.826 5.466 3.21 5.094 3.69C4.722 4.17 4.44 4.71 4.248 5.31C4.068 5.898 3.978 6.492 3.978 7.092C3.978 7.752 4.086 8.388 4.302 9C4.53 9.612 4.842 10.152 5.238 10.62C5.634 11.088 6.102 11.46 6.642 11.736C7.182 12.012 7.77 12.15 8.406 12.15C8.85 12.15 9.306 12.072 9.774 11.916C10.242 11.76 10.68 11.52 11.088 11.196C11.496 10.86 11.82 10.428 12.06 9.9L13.41 10.638C13.146 11.274 12.738 11.814 12.186 12.258C11.634 12.702 11.016 13.038 10.332 13.266C9.66 13.494 8.994 13.608 8.334 13.608C7.458 13.608 6.654 13.422 5.922 13.05C5.19 12.666 4.554 12.162 4.014 11.538C3.486 10.902 3.072 10.194 2.772 9.414C2.484 8.622 2.34 7.824 2.34 7.02Z" fill="#1D1F22"/>
</svg>
